<svg xmlns="http://www.w3.org/2000/svg" version="1.1" viewBox="-5.0 -10.0 110.0 135.0">
 <path d="m28.359 62.211c-5.75-5.75-15.629-1.6602-15.629 6.4766 0 8.1328 9.8789 12.227 15.629 6.4727 3.5742-3.5742 3.5742-9.375 0-12.949zm66.148-11.035c1.0742 3.7148 0.70313 11.23 0.70313 15.355h-4.4844c-0.45312-2.6758-1.7344-5.0703-3.5742-6.9102-7.3789-7.3789-19.977-3.2656-21.699 6.9102h-30.934c-0.45312-2.6758-1.7344-5.0703-3.5742-6.9102-7.3789-7.3789-19.977-3.2656-21.699 6.9102h-4.5156v-12.547c0-7.5273 4.7461-12.98 12.652-12.98h55.227c11.059 0 16.742 2.3945 19.652 5.8633h-2.7188c-2.8359 0-2.8359 4.3086 0 4.3086zm-47.375-29.023v14.543h24.832l-6.0078-10.848c-0.99219-1.8125-2.0234-3.6953-3.1719-3.6953zm-4.3125 14.543v-14.543h-16.273c-1.1484 0-1.8828 2.2305-2.8047 4.1523l-4.9727 10.391zm41.738 25.516c-5.75-5.75-15.629-1.6602-15.629 6.4766s9.8789 12.227 15.629 6.4727c3.5742-3.5742 3.5781-9.375 0-12.949z" fill-rule="evenodd"/>
<text x="0.0" y="117.5" font-size="5.0" font-weight="bold" font-family="Arbeit Regular, Helvetica, Arial-Unicode, Arial, Sans-serif" fill="#000000">Created by Hidayatul Munawaroh</text><text x="0.0" y="122.5" font-size="5.0" font-weight="bold" font-family="Arbeit Regular, Helvetica, Arial-Unicode, Arial, Sans-serif" fill="#000000">from Noun Project</text></svg>