<svg xmlns="http://www.w3.org/2000/svg" version="1.1" viewBox="-5.0 -10.0 110.0 135.0">
 <path d="m29.02 74.598c-5.8984-1.4688-10.27-6.8047-10.27-13.16v-41.621c0-7.4922 6.0742-13.566 13.566-13.566h35.367c7.4922 0 13.566 6.0742 13.566 13.566v41.621c0 6.3555-4.3711 11.691-10.27 13.16l9.8047 15.863-5.3203 3.2891-3.8555-6.2461h-43.219l-3.8555 6.2461-5.3203-3.2891zm5.3555-18.352c-2.5859 0-4.6875 2.1016-4.6875 4.6914 0 2.5859 2.1016 4.6875 4.6875 4.6875s4.6875-2.1016 4.6875-4.6875c0-2.5898-2.1016-4.6914-4.6875-4.6914zm32.629-40.621h-34.008c-2.6914 0-4.8711 2.1797-4.8711 4.8672v21.516c0 2.6875 2.1797 4.8672 4.8711 4.8672h34.008c2.6914 0 4.8711-2.1797 4.8711-4.8672v-21.516c0-2.6875-2.1797-4.8672-4.8711-4.8672zm-1.3789 40.621c-2.5859 0-4.6875 2.1016-4.6875 4.6914 0 2.5859 2.1016 4.6875 4.6875 4.6875s4.6875-2.1016 4.6875-4.6875c0-2.5898-2.1016-4.6914-4.6875-4.6914zm-1.7422 18.758h-27.766l-3.8633 6.25h35.492z" fill-rule="evenodd"/>
<text x="0.0" y="117.5" font-size="5.0" font-weight="bold" font-family="Arbeit Regular, Helvetica, Arial-Unicode, Arial, Sans-serif" fill="#000000">Created by Mol Media</text><text x="0.0" y="122.5" font-size="5.0" font-weight="bold" font-family="Arbeit Regular, Helvetica, Arial-Unicode, Arial, Sans-serif" fill="#000000">from Noun Project</text></svg>